<mxfile host="app.diagrams.net" modified="2020-08-20T14:08:49.340Z" agent="5.0 (Windows NT 10.0; Win64; x64) AppleWebKit/537.36 (KHTML, like Gecko) Chrome/83.0.4103.106 Safari/537.36 OPR/69.0.3686.66" etag="aaPVQhFSO7X8xte-Yu7C" version="13.6.4" type="github">
  <diagram id="DeR9rM6bUBlWCbhCrorO" name="Page-1">
    <mxGraphModel dx="742" dy="508" grid="1" gridSize="10" guides="1" tooltips="1" connect="1" arrows="1" fold="1" page="1" pageScale="1" pageWidth="850" pageHeight="1100" background="none" math="0" shadow="0">
      <root>
        <mxCell id="0" />
        <mxCell id="1" parent="0" />
        <mxCell id="cTkcIqw-YA_uff6Iq8nk-3" value="" style="edgeStyle=orthogonalEdgeStyle;rounded=0;orthogonalLoop=1;jettySize=auto;html=1;" parent="1" source="cTkcIqw-YA_uff6Iq8nk-1" target="cTkcIqw-YA_uff6Iq8nk-2" edge="1">
          <mxGeometry relative="1" as="geometry" />
        </mxCell>
        <mxCell id="cTkcIqw-YA_uff6Iq8nk-1" value="&lt;font size=&quot;3&quot;&gt;Upload Image&lt;/font&gt;" style="rounded=0;whiteSpace=wrap;html=1;" parent="1" vertex="1">
          <mxGeometry x="330" y="60" width="120" height="60" as="geometry" />
        </mxCell>
        <mxCell id="cTkcIqw-YA_uff6Iq8nk-5" value="" style="edgeStyle=orthogonalEdgeStyle;rounded=0;orthogonalLoop=1;jettySize=auto;html=1;" parent="1" source="cTkcIqw-YA_uff6Iq8nk-2" target="cTkcIqw-YA_uff6Iq8nk-4" edge="1">
          <mxGeometry relative="1" as="geometry" />
        </mxCell>
        <mxCell id="cTkcIqw-YA_uff6Iq8nk-2" value="&lt;font size=&quot;3&quot;&gt;Training over image&lt;/font&gt;" style="rounded=0;whiteSpace=wrap;html=1;" parent="1" vertex="1">
          <mxGeometry x="330" y="200" width="120" height="60" as="geometry" />
        </mxCell>
        <mxCell id="cTkcIqw-YA_uff6Iq8nk-4" value="&lt;font size=&quot;3&quot;&gt;Recognize image&lt;br&gt;AND&lt;br&gt;Make Attendence&lt;br&gt;&lt;/font&gt;" style="rounded=0;whiteSpace=wrap;html=1;" parent="1" vertex="1">
          <mxGeometry x="300" y="340" width="180" height="110" as="geometry" />
        </mxCell>
      </root>
    </mxGraphModel>
  </diagram>
</mxfile>
